<mxfile host="app.diagrams.net" modified="2023-03-29T23:21:59.535Z" agent="Mozilla/5.0 (Windows NT 10.0; Win64; x64) AppleWebKit/537.36 (KHTML, like Gecko) Chrome/111.0.0.0 Safari/537.36" etag="JS18m5yqBABxxAGqR-_q" version="21.1.1" pages="2">
  <diagram name="MySQL - Light" id="dAQb2vPcznhHGMCbKmY8">
    <mxGraphModel dx="440" dy="237" grid="1" gridSize="10" guides="1" tooltips="1" connect="1" arrows="1" fold="1" page="1" pageScale="1" pageWidth="1169" pageHeight="827" math="0" shadow="0">
      <root>
        <mxCell id="0" />
        <mxCell id="1" parent="0" />
        <mxCell id="KXsDcnlixKhPaoSL4pIM-7" value="AWS Cloud" style="points=[[0,0],[0.25,0],[0.5,0],[0.75,0],[1,0],[1,0.25],[1,0.5],[1,0.75],[1,1],[0.75,1],[0.5,1],[0.25,1],[0,1],[0,0.75],[0,0.5],[0,0.25]];outlineConnect=0;gradientColor=none;html=1;whiteSpace=wrap;fontSize=12;fontStyle=0;container=1;pointerEvents=0;collapsible=0;recursiveResize=0;shape=mxgraph.aws4.group;grIcon=mxgraph.aws4.group_aws_cloud_alt;strokeColor=#232F3E;fillColor=none;verticalAlign=top;align=left;spacingLeft=30;fontColor=#232F3E;dashed=0;" parent="1" vertex="1">
          <mxGeometry x="320" y="380" width="440" height="185" as="geometry" />
        </mxCell>
        <mxCell id="KXsDcnlixKhPaoSL4pIM-8" value="Secrets Manager" style="sketch=0;points=[[0,0,0],[0.25,0,0],[0.5,0,0],[0.75,0,0],[1,0,0],[0,1,0],[0.25,1,0],[0.5,1,0],[0.75,1,0],[1,1,0],[0,0.25,0],[0,0.5,0],[0,0.75,0],[1,0.25,0],[1,0.5,0],[1,0.75,0]];outlineConnect=0;fontColor=#232F3E;gradientColor=#F54749;gradientDirection=north;fillColor=#C7131F;strokeColor=#ffffff;dashed=0;verticalLabelPosition=bottom;verticalAlign=top;align=center;html=1;fontSize=12;fontStyle=0;aspect=fixed;shape=mxgraph.aws4.resourceIcon;resIcon=mxgraph.aws4.secrets_manager;" parent="KXsDcnlixKhPaoSL4pIM-7" vertex="1">
          <mxGeometry x="100" y="20" width="40" height="40" as="geometry" />
        </mxCell>
        <mxCell id="KXsDcnlixKhPaoSL4pIM-9" value="Identity &amp;amp; Access&lt;br&gt;Management" style="sketch=0;points=[[0,0,0],[0.25,0,0],[0.5,0,0],[0.75,0,0],[1,0,0],[0,1,0],[0.25,1,0],[0.5,1,0],[0.75,1,0],[1,1,0],[0,0.25,0],[0,0.5,0],[0,0.75,0],[1,0.25,0],[1,0.5,0],[1,0.75,0]];outlineConnect=0;fontColor=#232F3E;gradientColor=#F54749;gradientDirection=north;fillColor=#C7131F;strokeColor=#ffffff;dashed=0;verticalLabelPosition=bottom;verticalAlign=top;align=center;html=1;fontSize=12;fontStyle=0;aspect=fixed;shape=mxgraph.aws4.resourceIcon;resIcon=mxgraph.aws4.identity_and_access_management;" parent="KXsDcnlixKhPaoSL4pIM-7" vertex="1">
          <mxGeometry x="300" y="20" width="40" height="40" as="geometry" />
        </mxCell>
        <mxCell id="KXsDcnlixKhPaoSL4pIM-1" value="MySQL" style="sketch=0;outlineConnect=0;fontColor=#232F3E;gradientColor=none;fillColor=#2E27AD;strokeColor=none;dashed=0;verticalLabelPosition=bottom;verticalAlign=top;align=center;html=1;fontSize=12;fontStyle=0;aspect=fixed;pointerEvents=1;shape=mxgraph.aws4.rds_mysql_instance;" parent="1" vertex="1">
          <mxGeometry x="360" y="480" width="40" height="40" as="geometry" />
        </mxCell>
        <mxCell id="KXsDcnlixKhPaoSL4pIM-2" value="MSK Connect" style="sketch=0;outlineConnect=0;fontColor=#232F3E;gradientColor=none;fillColor=#4D27AA;strokeColor=none;dashed=0;verticalLabelPosition=bottom;verticalAlign=top;align=center;html=1;fontSize=12;fontStyle=0;aspect=fixed;pointerEvents=1;shape=mxgraph.aws4.msk_amazon_msk_connect;" parent="1" vertex="1">
          <mxGeometry x="520" y="480" width="40" height="39.49" as="geometry" />
        </mxCell>
        <mxCell id="KXsDcnlixKhPaoSL4pIM-3" value="Managed Streaming&lt;br&gt;for Apache Kafka" style="sketch=0;points=[[0,0,0],[0.25,0,0],[0.5,0,0],[0.75,0,0],[1,0,0],[0,1,0],[0.25,1,0],[0.5,1,0],[0.75,1,0],[1,1,0],[0,0.25,0],[0,0.5,0],[0,0.75,0],[1,0.25,0],[1,0.5,0],[1,0.75,0]];outlineConnect=0;fontColor=#232F3E;gradientColor=#945DF2;gradientDirection=north;fillColor=#5A30B5;strokeColor=#ffffff;dashed=0;verticalLabelPosition=bottom;verticalAlign=top;align=center;html=1;fontSize=12;fontStyle=0;aspect=fixed;shape=mxgraph.aws4.resourceIcon;resIcon=mxgraph.aws4.managed_streaming_for_kafka;" parent="1" vertex="1">
          <mxGeometry x="680" y="480" width="40" height="40" as="geometry" />
        </mxCell>
        <mxCell id="KXsDcnlixKhPaoSL4pIM-5" value="binlog" style="edgeStyle=orthogonalEdgeStyle;html=1;endArrow=block;elbow=vertical;startArrow=block;endFill=1;strokeColor=#545B64;rounded=0;labelPosition=center;verticalLabelPosition=top;align=center;verticalAlign=bottom;fontStyle=2;startFill=1;labelBackgroundColor=none;" parent="1" source="KXsDcnlixKhPaoSL4pIM-1" target="KXsDcnlixKhPaoSL4pIM-2" edge="1">
          <mxGeometry width="100" relative="1" as="geometry">
            <mxPoint x="540" y="500" as="sourcePoint" />
            <mxPoint x="640" y="500" as="targetPoint" />
          </mxGeometry>
        </mxCell>
        <mxCell id="KXsDcnlixKhPaoSL4pIM-6" value="Source" style="edgeStyle=orthogonalEdgeStyle;html=1;endArrow=block;elbow=vertical;startArrow=none;endFill=1;strokeColor=#545B64;rounded=0;entryX=0;entryY=0.5;entryDx=0;entryDy=0;entryPerimeter=0;labelPosition=center;verticalLabelPosition=top;align=center;verticalAlign=bottom;fontStyle=2;labelBackgroundColor=none;" parent="1" source="KXsDcnlixKhPaoSL4pIM-2" target="KXsDcnlixKhPaoSL4pIM-3" edge="1">
          <mxGeometry width="100" relative="1" as="geometry">
            <mxPoint x="410" y="510" as="sourcePoint" />
            <mxPoint x="530" y="510" as="targetPoint" />
          </mxGeometry>
        </mxCell>
        <mxCell id="qqvzGpJ-1NjEDbRFIKFI-1" value="Get Secret Value" style="edgeStyle=orthogonalEdgeStyle;html=1;endArrow=none;elbow=vertical;startArrow=block;startFill=1;strokeColor=#545B64;rounded=0;exitX=1;exitY=0.5;exitDx=0;exitDy=0;exitPerimeter=0;labelPosition=left;verticalLabelPosition=top;align=right;verticalAlign=bottom;fontStyle=2;spacingLeft=0;spacingRight=-20;labelBackgroundColor=none;" edge="1" parent="1" source="KXsDcnlixKhPaoSL4pIM-8" target="KXsDcnlixKhPaoSL4pIM-2">
          <mxGeometry width="100" relative="1" as="geometry">
            <mxPoint x="470" y="440" as="sourcePoint" />
            <mxPoint x="570" y="440" as="targetPoint" />
            <Array as="points">
              <mxPoint x="530" y="420" />
            </Array>
          </mxGeometry>
        </mxCell>
        <mxCell id="qqvzGpJ-1NjEDbRFIKFI-2" value="Authorize" style="edgeStyle=orthogonalEdgeStyle;html=1;endArrow=none;elbow=vertical;startArrow=block;startFill=1;strokeColor=#545B64;rounded=0;exitX=0;exitY=0.5;exitDx=0;exitDy=0;exitPerimeter=0;labelPosition=right;verticalLabelPosition=top;align=left;verticalAlign=bottom;fontStyle=2;spacingBottom=0;spacingLeft=0;labelBackgroundColor=none;" edge="1" parent="1" source="KXsDcnlixKhPaoSL4pIM-9" target="KXsDcnlixKhPaoSL4pIM-2">
          <mxGeometry x="0.0022" width="100" relative="1" as="geometry">
            <mxPoint x="490" y="430" as="sourcePoint" />
            <mxPoint x="540" y="490" as="targetPoint" />
            <Array as="points">
              <mxPoint x="550" y="420" />
            </Array>
            <mxPoint as="offset" />
          </mxGeometry>
        </mxCell>
      </root>
    </mxGraphModel>
  </diagram>
  <diagram name="MySQL - Dark" id="ZLzhnl4fliBKkmHjVl9e">
    <mxGraphModel dx="762" dy="410" grid="1" gridSize="10" guides="1" tooltips="1" connect="1" arrows="1" fold="1" page="1" pageScale="1" pageWidth="1169" pageHeight="827" math="0" shadow="0">
      <root>
        <mxCell id="sSSdUypv5DBkCv4jbJLJ-0" />
        <mxCell id="sSSdUypv5DBkCv4jbJLJ-1" parent="sSSdUypv5DBkCv4jbJLJ-0" />
        <mxCell id="sSSdUypv5DBkCv4jbJLJ-2" value="&lt;font color=&quot;#ffffff&quot;&gt;AWS Cloud&lt;/font&gt;" style="points=[[0,0],[0.25,0],[0.5,0],[0.75,0],[1,0],[1,0.25],[1,0.5],[1,0.75],[1,1],[0.75,1],[0.5,1],[0.25,1],[0,1],[0,0.75],[0,0.5],[0,0.25]];outlineConnect=0;gradientColor=none;html=1;whiteSpace=wrap;fontSize=12;fontStyle=0;container=1;pointerEvents=0;collapsible=0;recursiveResize=0;shape=mxgraph.aws4.group;grIcon=mxgraph.aws4.group_aws_cloud_alt;strokeColor=#FFFFFF;fillColor=none;verticalAlign=top;align=left;spacingLeft=30;fontColor=#232F3E;dashed=0;" vertex="1" parent="sSSdUypv5DBkCv4jbJLJ-1">
          <mxGeometry x="320" y="380" width="440" height="185" as="geometry" />
        </mxCell>
        <mxCell id="sSSdUypv5DBkCv4jbJLJ-3" value="Secrets Manager" style="sketch=0;points=[[0,0,0],[0.25,0,0],[0.5,0,0],[0.75,0,0],[1,0,0],[0,1,0],[0.25,1,0],[0.5,1,0],[0.75,1,0],[1,1,0],[0,0.25,0],[0,0.5,0],[0,0.75,0],[1,0.25,0],[1,0.5,0],[1,0.75,0]];outlineConnect=0;fontColor=#FFFFFF;gradientColor=#F54749;gradientDirection=north;fillColor=#C7131F;strokeColor=#ffffff;dashed=0;verticalLabelPosition=bottom;verticalAlign=top;align=center;html=1;fontSize=12;fontStyle=0;aspect=fixed;shape=mxgraph.aws4.resourceIcon;resIcon=mxgraph.aws4.secrets_manager;" vertex="1" parent="sSSdUypv5DBkCv4jbJLJ-2">
          <mxGeometry x="100" y="20" width="40" height="40" as="geometry" />
        </mxCell>
        <mxCell id="sSSdUypv5DBkCv4jbJLJ-4" value="Identity &amp;amp; Access&lt;br&gt;Management" style="sketch=0;points=[[0,0,0],[0.25,0,0],[0.5,0,0],[0.75,0,0],[1,0,0],[0,1,0],[0.25,1,0],[0.5,1,0],[0.75,1,0],[1,1,0],[0,0.25,0],[0,0.5,0],[0,0.75,0],[1,0.25,0],[1,0.5,0],[1,0.75,0]];outlineConnect=0;fontColor=#FFFFFF;gradientColor=#F54749;gradientDirection=north;fillColor=#C7131F;strokeColor=#ffffff;dashed=0;verticalLabelPosition=bottom;verticalAlign=top;align=center;html=1;fontSize=12;fontStyle=0;aspect=fixed;shape=mxgraph.aws4.resourceIcon;resIcon=mxgraph.aws4.identity_and_access_management;" vertex="1" parent="sSSdUypv5DBkCv4jbJLJ-2">
          <mxGeometry x="300" y="20" width="40" height="40" as="geometry" />
        </mxCell>
        <mxCell id="sSSdUypv5DBkCv4jbJLJ-5" value="MySQL" style="sketch=0;outlineConnect=0;fontColor=#FFFFFF;gradientColor=none;fillColor=#2E27AD;strokeColor=none;dashed=0;verticalLabelPosition=bottom;verticalAlign=top;align=center;html=1;fontSize=12;fontStyle=0;aspect=fixed;pointerEvents=1;shape=mxgraph.aws4.rds_mysql_instance;" vertex="1" parent="sSSdUypv5DBkCv4jbJLJ-1">
          <mxGeometry x="360" y="480" width="40" height="40" as="geometry" />
        </mxCell>
        <mxCell id="sSSdUypv5DBkCv4jbJLJ-6" value="MSK Connect" style="sketch=0;outlineConnect=0;fontColor=#FFFFFF;gradientColor=none;fillColor=#4D27AA;strokeColor=none;dashed=0;verticalLabelPosition=bottom;verticalAlign=top;align=center;html=1;fontSize=12;fontStyle=0;aspect=fixed;pointerEvents=1;shape=mxgraph.aws4.msk_amazon_msk_connect;" vertex="1" parent="sSSdUypv5DBkCv4jbJLJ-1">
          <mxGeometry x="520" y="480" width="40" height="39.49" as="geometry" />
        </mxCell>
        <mxCell id="sSSdUypv5DBkCv4jbJLJ-7" value="Managed Streaming&lt;br&gt;for Apache Kafka" style="sketch=0;points=[[0,0,0],[0.25,0,0],[0.5,0,0],[0.75,0,0],[1,0,0],[0,1,0],[0.25,1,0],[0.5,1,0],[0.75,1,0],[1,1,0],[0,0.25,0],[0,0.5,0],[0,0.75,0],[1,0.25,0],[1,0.5,0],[1,0.75,0]];outlineConnect=0;fontColor=#FFFFFF;gradientColor=#945DF2;gradientDirection=north;fillColor=#5A30B5;strokeColor=#ffffff;dashed=0;verticalLabelPosition=bottom;verticalAlign=top;align=center;html=1;fontSize=12;fontStyle=0;aspect=fixed;shape=mxgraph.aws4.resourceIcon;resIcon=mxgraph.aws4.managed_streaming_for_kafka;" vertex="1" parent="sSSdUypv5DBkCv4jbJLJ-1">
          <mxGeometry x="680" y="480" width="40" height="40" as="geometry" />
        </mxCell>
        <mxCell id="sSSdUypv5DBkCv4jbJLJ-8" value="binlog" style="edgeStyle=orthogonalEdgeStyle;html=1;endArrow=block;elbow=vertical;startArrow=block;endFill=1;strokeColor=#8FA7C4;rounded=0;labelPosition=center;verticalLabelPosition=top;align=center;verticalAlign=bottom;fontStyle=2;startFill=1;fontColor=#FFFFFF;labelBackgroundColor=none;" edge="1" parent="sSSdUypv5DBkCv4jbJLJ-1" source="sSSdUypv5DBkCv4jbJLJ-5" target="sSSdUypv5DBkCv4jbJLJ-6">
          <mxGeometry width="100" relative="1" as="geometry">
            <mxPoint x="540" y="500" as="sourcePoint" />
            <mxPoint x="640" y="500" as="targetPoint" />
          </mxGeometry>
        </mxCell>
        <mxCell id="sSSdUypv5DBkCv4jbJLJ-9" value="Source" style="edgeStyle=orthogonalEdgeStyle;html=1;endArrow=block;elbow=vertical;startArrow=none;endFill=1;strokeColor=#8FA7C4;rounded=0;entryX=0;entryY=0.5;entryDx=0;entryDy=0;entryPerimeter=0;labelPosition=center;verticalLabelPosition=top;align=center;verticalAlign=bottom;fontStyle=2;fontColor=#FFFFFF;labelBackgroundColor=none;" edge="1" parent="sSSdUypv5DBkCv4jbJLJ-1" source="sSSdUypv5DBkCv4jbJLJ-6" target="sSSdUypv5DBkCv4jbJLJ-7">
          <mxGeometry width="100" relative="1" as="geometry">
            <mxPoint x="410" y="510" as="sourcePoint" />
            <mxPoint x="530" y="510" as="targetPoint" />
          </mxGeometry>
        </mxCell>
        <mxCell id="sSSdUypv5DBkCv4jbJLJ-10" value="Get Secret Value" style="edgeStyle=orthogonalEdgeStyle;html=1;endArrow=none;elbow=vertical;startArrow=block;startFill=1;strokeColor=#8FA7C4;rounded=0;exitX=1;exitY=0.5;exitDx=0;exitDy=0;exitPerimeter=0;labelPosition=left;verticalLabelPosition=top;align=right;verticalAlign=bottom;fontStyle=2;spacingLeft=0;spacingRight=-20;fontColor=#FFFFFF;labelBackgroundColor=none;" edge="1" parent="sSSdUypv5DBkCv4jbJLJ-1" source="sSSdUypv5DBkCv4jbJLJ-3" target="sSSdUypv5DBkCv4jbJLJ-6">
          <mxGeometry width="100" relative="1" as="geometry">
            <mxPoint x="470" y="440" as="sourcePoint" />
            <mxPoint x="570" y="440" as="targetPoint" />
            <Array as="points">
              <mxPoint x="530" y="420" />
            </Array>
          </mxGeometry>
        </mxCell>
        <mxCell id="sSSdUypv5DBkCv4jbJLJ-11" value="Authorize" style="edgeStyle=orthogonalEdgeStyle;html=1;endArrow=none;elbow=vertical;startArrow=block;startFill=1;strokeColor=#8FA7C4;rounded=0;exitX=0;exitY=0.5;exitDx=0;exitDy=0;exitPerimeter=0;labelPosition=right;verticalLabelPosition=top;align=left;verticalAlign=bottom;fontStyle=2;spacingBottom=0;spacingLeft=0;fontColor=#FFFFFF;labelBackgroundColor=none;" edge="1" parent="sSSdUypv5DBkCv4jbJLJ-1" source="sSSdUypv5DBkCv4jbJLJ-4" target="sSSdUypv5DBkCv4jbJLJ-6">
          <mxGeometry x="0.0022" width="100" relative="1" as="geometry">
            <mxPoint x="490" y="430" as="sourcePoint" />
            <mxPoint x="540" y="490" as="targetPoint" />
            <Array as="points">
              <mxPoint x="550" y="420" />
            </Array>
            <mxPoint as="offset" />
          </mxGeometry>
        </mxCell>
      </root>
    </mxGraphModel>
  </diagram>
</mxfile>
